<?xml version="1.0" encoding="UTF-8"?>
<!DOCTYPE svg PUBLIC "-//W3C//DTD SVG 1.1//EN" "http://www.w3.org/Graphics/SVG/1.1/DTD/svg11.dtd">
<!-- Creator: CorelDRAW 2021 (64-Bit) -->
<svg xmlns="http://www.w3.org/2000/svg" xml:space="preserve" width="300mm" height="300mm" version="1.1" style="shape-rendering:geometricPrecision; text-rendering:geometricPrecision; image-rendering:optimizeQuality; fill-rule:evenodd; clip-rule:evenodd"
viewBox="0 0 30000 30000"
 xmlns:xlink="http://www.w3.org/1999/xlink"
 xmlns:xodm="http://www.corel.com/coreldraw/odm/2003">
 <defs>
  <style type="text/css">
   <![CDATA[
    .str0 {stroke:#332C2B;stroke-width:20;stroke-miterlimit:22.9256}
    .fil1 {fill:none}
    .fil4 {fill:#332C2B}
    .fil2 {fill:#313131}
    .fil3 {fill:#393D42}
    .fil0 {fill:#99180D}
   ]]>
  </style>
    <clipPath id="id0">
     <path d="M1078.89 3125.53l13462.39 0 177.72 23754.8 -13462.39 0 -177.72 -23754.8z"/>
    </clipPath>
    <mask id="id1">
  <linearGradient id="id2" gradientUnits="userSpaceOnUse" x1="11279.24" y1="13298" x2="11698.14" y2="13716.9">
   <stop offset="0" style="stop-opacity:0; stop-color:white"/>
   <stop offset="1" style="stop-opacity:1; stop-color:white"/>
  </linearGradient>
     <rect style="fill:url(#id2)" x="9967.84" y="11986.6" width="3041.69" height="3041.69"/>
    </mask>
    <clipPath id="id3">
     <path d="M12156.46 5808.83l18882.1 17.36 0 18414.85 -18882.1 -17.36 0 -18414.85z"/>
    </clipPath>
 </defs>
 <g id="Layer_x0020_1">
  <metadata id="CorelCorpID_0Corel-Layer"/>
  <g id="_2735421920896">
   <g style="clip-path:url(#id0)">
    <image x="1078.89" y="3125.53" width="13640.11" height="23754.8" xlink:href="logo_Images\logo_ImgID1.png"/>
   </g>
  </g>
  <g id="_2735421919600">
   <polygon class="fil0" points="10400.11,15018.29 2643.84,7261.98 5229.26,4676.57 12985.56,12432.84 "/>
   <line class="fil1" x1="10400.11" y1="15018.29" x2="12985.56" y2= "12432.84" />
   <polygon class="fil2" points="12985.56,12432.84 10400.11,15018.29 2643.84,22774.59 5229.26,25360 12985.56,17603.73 12974.59,15018.29 "/>
   <polygon class="fil3" points="6801.93,12012.61 9766.8,14931.92 6801.93,17896.86 "/>
   <polygon class="fil4" style="mask:url(#id1)" points="12563.29,11996.6 12999.53,12432.84 10414.08,15018.29 9977.84,14582.05 "/>
  </g>
  <g id="_2735421921664">
   <g style="clip-path:url(#id3)">
    <image x="12156.46" y="5808.83" width="18882.1" height="18432.21" xlink:href="logo_Images\logo_ImgID2.png"/>
   </g>
  </g>
  <g id="_2735421920608">
   <rect class="fil2 str0" x="14289.8" y="20262.66" width="14625.44" height="1828.18"/>
   <polygon class="fil2 str0" points="16624.22,7945.71 14796.04,8009.48 14796.04,18978.55 16624.22,18978.55 16624.22,10531.16 21620.05,15526.99 26580.85,10566.22 26580.85,18978.55 28409.03,18978.55 28409.03,8009.48 26615.91,7945.71 21620.05,12941.54 "/>
  </g>
 </g>
</svg>
